<?xml version="1.0" encoding="UTF-8"?>
<svg version="1.1" xmlns="http://www.w3.org/2000/svg" width="512" height="512">
<path d="M0 0 C168.96 0 337.92 0 512 0 C512 168.96 512 337.92 512 512 C343.04 512 174.08 512 0 512 C0 343.04 0 174.08 0 0 Z " fill="#FEFEFE" transform="translate(0,0)"/>
<path d="M0 0 C0.75942963 -0.00523668 1.51885925 -0.01047336 2.3013019 -0.01586872 C4.84207035 -0.03085139 7.38263709 -0.0315735 9.92344666 -0.03224182 C11.7470585 -0.03986472 13.57066714 -0.04829245 15.39427185 -0.0574646 C20.34710909 -0.07940958 25.29988458 -0.08820906 30.25276494 -0.09329104 C33.35031505 -0.09693606 36.44784903 -0.10317703 39.54539299 -0.11029243 C50.3613595 -0.13479153 61.17727805 -0.14783884 71.99327087 -0.15138245 C82.05832119 -0.15501317 92.12306573 -0.18487422 102.18802267 -0.22678703 C110.8404793 -0.26154817 119.49283494 -0.27693193 128.14536089 -0.27762848 C133.30792241 -0.27841962 138.47017274 -0.28708226 143.63266182 -0.31562614 C148.49439673 -0.34190502 153.35556472 -0.34395737 158.21733856 -0.3279705 C159.99419077 -0.32616353 161.7710763 -0.33277832 163.54785728 -0.34878922 C175.83203267 -0.45266545 186.3364884 0.38479143 195.88023376 9.08665466 C200.94666712 14.64814492 204.49757142 21.17775865 204.51445484 28.80082035 C204.51891269 29.73417652 204.52337053 30.66753269 204.52796346 31.62917238 C204.5277791 32.65638681 204.52759473 33.68360123 204.52740479 34.74194336 C204.53108147 35.83184301 204.53475816 36.92174266 204.53854626 38.04466957 C204.54960473 41.71565172 204.55343064 45.38660559 204.55723572 49.05760193 C204.56349879 51.68218069 204.57014545 54.30675856 204.57714844 56.93133545 C204.59691252 64.82192972 204.60697989 72.71252528 204.61587623 80.60313812 C204.62026003 84.3201526 204.62562667 88.03716565 204.6308651 91.754179 C204.64787884 104.11311961 204.66237189 116.47205934 204.66961384 128.83100986 C204.6715237 132.0383765 204.67344404 135.24574313 204.67539978 138.45310974 C204.67588352 139.25027489 204.67636726 140.04744004 204.67686566 140.86876171 C204.68516175 153.7755131 204.71049088 166.68217169 204.74298046 179.58888257 C204.77607474 192.84407316 204.79406482 206.09921663 204.79725808 219.35444874 C204.7994212 226.79503853 204.80814056 234.23549307 204.83371925 241.67604256 C204.85545884 248.01446823 204.86346081 254.3527258 204.85375247 260.69118453 C204.84921681 263.92289472 204.85324609 267.15418699 204.87051392 270.38586426 C204.88822112 273.89669404 204.88113124 277.40664979 204.86798096 280.91748047 C204.8789502 281.92907984 204.88991945 282.94067921 204.9012211 283.9829331 C204.8090588 294.20361754 201.55776437 301.96517265 194.52867126 309.36009216 C189.59200381 313.75821408 184.85094937 315.32096143 178.38023376 316.27415466 C178.41503845 317.53872498 178.44984314 318.80329529 178.48570251 320.10618591 C178.51384053 321.76632889 178.54114068 323.42648622 178.56773376 325.08665466 C178.59287048 325.92003357 178.6180072 326.75341248 178.64390564 327.61204529 C178.65840759 328.8157074 178.65840759 328.8157074 178.67320251 330.04368591 C178.69676819 331.15127258 178.69676819 331.15127258 178.72080994 332.28123474 C178.27974861 334.86215488 177.45746798 335.72006681 175.38023376 337.27415466 C172.13023376 337.67259216 172.13023376 337.67259216 168.38023376 337.64915466 C166.52398376 337.66075623 166.52398376 337.66075623 164.63023376 337.67259216 C161.38023376 337.27415466 161.38023376 337.27415466 158.38023376 334.27415466 C158.38023376 328.66415466 158.38023376 323.05415466 158.38023376 317.27415466 C110.86023376 317.27415466 63.34023376 317.27415466 14.38023376 317.27415466 C14.38023376 322.88415466 14.38023376 328.49415466 14.38023376 334.27415466 C11.38023376 337.27415466 11.38023376 337.27415466 8.13023376 337.67259216 C6.89273376 337.66485779 5.65523376 337.65712341 4.38023376 337.64915466 C2.52398376 337.66075623 2.52398376 337.66075623 0.63023376 337.67259216 C-2.61976624 337.27415466 -2.61976624 337.27415466 -4.30458069 336.01365662 C-5.94160028 333.84848777 -5.96996331 332.73341704 -5.91273499 330.04368591 C-5.90306702 329.24124451 -5.89339905 328.4388031 -5.88343811 327.61204529 C-5.85830139 326.77866638 -5.83316467 325.94528748 -5.80726624 325.08665466 C-5.79373108 324.24167419 -5.78019592 323.39669373 -5.76625061 322.52610779 C-5.73092422 320.44185082 -5.67711763 318.3579219 -5.61976624 316.27415466 C-6.68066467 316.16329529 -7.74156311 316.05243591 -8.83460999 315.93821716 C-15.94794553 314.69026356 -21.85918555 310.00997197 -26.239182 304.32907146 C-31.17187833 296.98704895 -32.20439243 289.617309 -32.12770081 280.95785522 C-32.13706075 279.31297594 -32.13706075 279.31297594 -32.14660978 277.63486677 C-32.16248576 273.98307527 -32.14995609 270.33195625 -32.13734436 266.68016052 C-32.14276781 264.05292371 -32.14989172 261.42568994 -32.15858459 258.79846191 C-32.1763206 252.41725924 -32.1725521 246.03624533 -32.16093403 239.65503543 C-32.15188131 234.46702496 -32.15068363 229.27906721 -32.1550293 224.0910511 C-32.15564223 223.35120769 -32.15625516 222.61136429 -32.15688667 221.84910138 C-32.15816563 220.34589229 -32.15946249 218.84268321 -32.16077703 217.33947415 C-32.17216821 203.26218906 -32.15909173 189.18500837 -32.13757557 175.10774041 C-32.11970218 163.04035686 -32.12281347 150.97312724 -32.14125061 138.90574646 C-32.16267683 124.87549847 -32.1710736 110.84534182 -32.15880156 96.81507975 C-32.15752742 95.31786733 -32.15626994 93.8206549 -32.1550293 92.32344246 C-32.15410364 91.21859456 -32.15410364 91.21859456 -32.15315929 90.0914265 C-32.14971191 84.91178857 -32.15552141 79.7322088 -32.16494751 74.55257988 C-32.17736437 67.57653767 -32.16847158 60.60079052 -32.14537048 53.62477684 C-32.14008604 51.06620007 -32.14159257 48.50759882 -32.15042114 45.94903183 C-32.16136984 42.45351583 -32.14761953 38.95892753 -32.12770081 35.46347046 C-32.13662369 34.45373309 -32.14554658 33.44399571 -32.15473986 32.40366024 C-32.05028433 22.93743805 -28.96600806 15.97547096 -22.54945374 9.06321716 C-15.94967806 2.9443968 -8.9827453 -0.03077797 0 0 Z " fill="#4BADDC" transform="translate(169.61976623535156,139.72584533691406)"/>
<path d="M0 0 C30.36 0 60.72 0 92 0 C92 6.27 92 12.54 92 19 C90.02 19 88.04 19 86 19 C86 44.41 86 69.82 86 96 C82.7 96 79.4 96 76 96 C76 70.59 76 45.18 76 19 C56.2 19 36.4 19 16 19 C16 44.41 16 69.82 16 96 C12.7 96 9.4 96 6 96 C6 70.59 6 45.18 6 19 C4.02 19 2.04 19 0 19 C0 12.73 0 6.46 0 0 Z " fill="#4BADDC" transform="translate(210,35)"/>
<path d="M0 0 C2.5625 0.25 2.5625 0.25 5 1 C6.30643685 3.6128737 6.16081435 5.57411866 6.20532227 8.50219727 C6.23522499 10.27352776 6.23522499 10.27352776 6.26573181 12.0806427 C6.28245438 13.39594467 6.29917694 14.71124664 6.31640625 16.06640625 C6.33725109 17.48130133 6.35834096 18.89619282 6.37965393 20.31108093 C6.43667984 24.23318516 6.48582741 28.15535263 6.53263092 32.07759094 C6.56245532 34.55878303 6.59392591 37.03994998 6.62567139 39.52111816 C7.03613172 72.14167539 7.10917642 104.76317337 7.12293625 137.38599777 C7.12500644 141.26206412 7.12877166 145.13812596 7.13284302 149.01419067 C7.13868603 155.15567133 7.13885637 161.29712658 7.13438225 167.43860817 C7.1333404 169.72973426 7.133912 172.02086168 7.13614082 174.31198692 C7.13867046 177.45313416 7.13492918 180.59420967 7.12939453 183.73535156 C7.13142159 184.66757821 7.13344866 185.59980486 7.13553715 186.5602808 C7.11430046 192.88569954 7.11430046 192.88569954 6 194 C3.5625 194.1875 3.5625 194.1875 1 194 C-1.76185654 191.23814346 -1.27467349 189.61690987 -1.31884766 185.74414062 C-1.32888478 185.09264605 -1.33892191 184.44115147 -1.34926319 183.76991463 C-1.38054742 181.56536856 -1.3973468 179.36095147 -1.4140625 177.15625 C-1.43303796 175.56480037 -1.45275714 173.97335946 -1.47315979 172.38192749 C-1.52612166 168.00699036 -1.56544917 163.63202547 -1.60149765 159.25691986 C-1.62494967 156.50590439 -1.65171927 153.75494125 -1.67959595 151.00396729 C-2.00693438 118.49196982 -2.13057566 85.97818133 -2.1807785 53.46469116 C-2.18751682 49.86601669 -2.19762871 46.26736516 -2.20855713 42.66870117 C-2.22510579 36.98393481 -2.23129805 31.29924923 -2.22932243 25.61445999 C-2.2300819 23.5044681 -2.23421601 21.39447451 -2.24185371 19.28449631 C-2.25156655 16.39774384 -2.24891237 13.51126804 -2.24291992 10.62451172 C-2.24854258 9.772313 -2.25416523 8.92011429 -2.25995827 8.04209137 C-2.22839119 2.22839119 -2.22839119 2.22839119 0 0 Z " fill="#F8FCFD" transform="translate(253,201)"/>
<path d="M0 0 C2 0.6875 2 0.6875 4 2.6875 C4.26171303 4.50168419 4.26171303 4.50168419 4.2784729 6.74447632 C4.28963701 7.59645127 4.30080112 8.44842623 4.31230354 9.32621861 C4.3144631 10.26576861 4.31662266 11.20531862 4.31884766 12.17333984 C4.32888762 13.16486274 4.33892757 14.15638563 4.34927177 15.17795467 C4.38041612 18.50144291 4.39726856 21.82484804 4.4140625 25.1484375 C4.43291865 27.49676659 4.45258784 29.84508927 4.47302246 32.19340515 C4.52524893 38.50919024 4.56472907 44.82499534 4.60129547 51.14088821 C4.63276747 56.34752878 4.67104524 61.55411024 4.70925713 66.76070499 C4.93446779 97.61111156 5.0949648 128.46240522 5.12248993 159.3136673 C5.1250038 161.75369012 5.12896002 164.19370751 5.13311768 166.63372803 C5.13888009 170.3953416 5.13913124 174.15691285 5.13444519 177.9185276 C5.13286093 179.91172399 5.1357568 181.90492236 5.13879395 183.89811707 C5.13414124 185.63476372 5.13414124 185.63476372 5.12939453 187.40649414 C5.12820114 188.91258995 5.12820114 188.91258995 5.12698364 190.44911194 C5 192.6875 5 192.6875 4 193.6875 C1.5625 193.875 1.5625 193.875 -1 193.6875 C-3.61116813 191.07633187 -3.27025022 189.95201071 -3.31884766 186.30883789 C-3.33871231 185.15434647 -3.35857697 183.99985504 -3.37904358 182.81037903 C-3.39059982 181.52330551 -3.40215607 180.23623199 -3.4140625 178.91015625 C-3.43298958 177.52319917 -3.45261854 176.13625151 -3.47288513 174.74931335 C-3.5259292 170.89737898 -3.56499349 167.04540922 -3.60109329 163.19328308 C-3.62496628 160.75344635 -3.65265998 158.3136828 -3.68161011 155.87390137 C-4.29038693 104.14904853 -4.09030634 52.4148094 -4 0.6875 C-2 -0.3125 -2 -0.3125 0 0 Z " fill="#FAFCFE" transform="translate(311,201.3125)"/>
<path d="M0 0 C4.55555556 0.55555556 4.55555556 0.55555556 6 2 C6.12438265 3.85981385 6.17807833 5.72436537 6.20532227 7.58813477 C6.23522499 9.42440681 6.23522499 9.42440681 6.26573181 11.29777527 C6.28285755 12.67898271 6.29973958 14.06019319 6.31640625 15.44140625 C6.33723643 16.90542455 6.35832642 18.36943918 6.37965393 19.83345032 C6.43667731 23.88769022 6.48580996 27.94199141 6.53263092 31.99636078 C6.56243145 34.55661105 6.59389954 37.11683649 6.62567139 39.67706299 C7.02623732 72.46797062 7.10895657 105.25954327 7.12293625 138.05262375 C7.12500647 141.88698276 7.12877148 145.72133722 7.13284302 149.55569458 C7.13868354 155.62702941 7.13885844 161.69833853 7.13438225 167.7696743 C7.13334061 170.03246227 7.13391154 172.2952516 7.13614082 174.55803871 C7.13867004 177.65834742 7.13493021 180.75858344 7.12939453 183.85888672 C7.13142159 184.77862557 7.13344866 185.69836443 7.13553715 186.64597416 C7.11430253 192.88569747 7.11430253 192.88569747 6 194 C3.5625 194.1875 3.5625 194.1875 1 194 C-1.4818534 191.5181466 -1.25628288 190.78383443 -1.2784729 187.36201477 C-1.28963638 186.38171295 -1.30079987 185.40141113 -1.31230164 184.3914032 C-1.31446182 183.31002579 -1.31662201 182.22864838 -1.31884766 181.11450195 C-1.32889328 179.97670288 -1.3389389 178.83890381 -1.34928894 177.66662598 C-1.38044098 173.8571828 -1.39730045 170.04781295 -1.4140625 166.23828125 C-1.43176346 163.54467865 -1.45232549 160.85109964 -1.4727478 158.15751648 C-1.51443613 152.45489185 -1.54878991 146.75226154 -1.578125 141.04956055 C-1.6182412 133.25391324 -1.6713466 125.45840034 -1.72736406 117.66285348 C-1.83710509 102.27254775 -1.91244339 86.88221263 -1.97282672 71.4916414 C-1.99359311 66.3021632 -2.01963339 61.11272465 -2.04724121 55.92327881 C-2.08267251 49.21529791 -2.11023358 42.50733354 -2.12856185 35.79928344 C-2.13832595 32.27374535 -2.15126926 28.74829259 -2.17247391 25.22280312 C-2.19553733 21.35190603 -2.20282127 17.48107116 -2.20849609 13.61010742 C-2.21762402 12.45623976 -2.22675194 11.30237209 -2.23615646 10.11353874 C-2.23511539 9.06695154 -2.23407433 8.02036434 -2.23300171 6.94206238 C-2.23631186 6.03034366 -2.239622 5.11862494 -2.24303246 4.17927837 C-2 2 -2 2 0 0 Z " fill="#FAFCFE" transform="translate(198,201)"/>
</svg>
